<svg xmlns:dc="http://purl.org/dc/elements/1.1/" xmlns:cc="http://creativecommons.org/ns#" xmlns:rdf="http://www.w3.org/1999/02/22-rdf-syntax-ns#" xmlns:svg="http://www.w3.org/2000/svg" xmlns="http://www.w3.org/2000/svg" xmlns:sodipodi="http://sodipodi.sourceforge.net/DTD/sodipodi-0.dtd" xmlns:inkscape="http://www.inkscape.org/namespaces/inkscape" version="1.1" x="0px" y="0px" viewBox="0 0 100 125"><g transform="translate(0,-952.36218)"><path style="text-indent:0;text-transform:none;direction:ltr;block-progression:tb;baseline-shift:baseline;color:#000000;enable-background:accumulate;" d="m 44.97403,963.37302 c -2.840184,0.072 -5.693944,0.4522 -8.5,1.1562 -20.857032,5.2334 -33.5458917,26.48676 -28.3125,47.34378 5.23332,20.857 26.455468,33.5458 47.3125,28.3125 20.85703,-5.2333 33.5459,-26.4555 28.3125,-47.31252 a 3.0002999,3.0002999 0 1 0 -5.78125,1.4688 c 4.44412,17.71182 -6.28807,35.58702 -24,40.03122 -17.711856,4.4442 -35.6183,-6.2569 -40.0625,-23.9688 -4.444128,-17.71182 6.288072,-35.61832 24,-40.06238 9.500832,-2.384 19.55487,-0.4287 27.46875,5.34366 a 3.0002999,3.0002999 0 1 0 3.53125,-4.81246 c -7.01186,-5.1146 -15.44827,-7.7172 -23.96875,-7.5 z m 44.875,1.9375 a 3.0003,3.0003 0 0 0 -2.03125,0.9687 c -10.63829,11.13046 -27.84252,30.07256 -39.03125,41.87498 l -14.8125,-13.06242 a 3.0103986,3.0103986 0 1 0 -4,4.5 l 17,15.00002 a 3.0003,3.0003 0 0 0 4.15625,-0.1563 c 11.17675,-11.6935 29.95443,-32.44352 41,-43.99998 a 3.0003,3.0003 0 0 0 -2.28125,-5.125 z" fill="#000000" fill-opacity="1" stroke="none" marker="none" visibility="visible" display="inline" overflow="visible"/></g></svg>