<svg xmlns="http://www.w3.org/2000/svg" data-name="Layer 1" viewBox="0 0 64 80" x="0px" y="0px"><path d="M32,63.68a30.09,30.09,0,0,1-12.06-2.5,30.91,30.91,0,0,1-9.83-6.8A31.68,31.68,0,0,1,3.49,44.31a32.52,32.52,0,0,1,0-24.62A31.68,31.68,0,0,1,10.11,9.62a30.91,30.91,0,0,1,9.83-6.8,30.34,30.34,0,0,1,24.12,0,30.91,30.91,0,0,1,9.83,6.8,31.68,31.68,0,0,1,6.62,10.07,32.52,32.52,0,0,1,0,24.62,31.68,31.68,0,0,1-6.62,10.07,30.91,30.91,0,0,1-9.83,6.8A30.09,30.09,0,0,1,32,63.68ZM32,4.52C17.26,4.52,5.27,16.85,5.27,32S17.26,59.48,32,59.48,58.73,47.15,58.73,32,46.74,4.52,32,4.52Z"/><path d="M35.71,32.06,47,20.73A2.63,2.63,0,1,0,43.32,17L32,28.35,20.68,17A2.63,2.63,0,0,0,17,20.73L28.29,32.06,17,43.38a2.63,2.63,0,0,0,3.72,3.72L32,35.77,43.32,47.1A2.63,2.63,0,0,0,47,43.38Z"/></svg>