<svg xmlns="http://www.w3.org/2000/svg" viewBox="0 0 100 125" x="0px" y="0px"><g data-name="13-Quotation"><path d="M53.47,77.72h.88a1.06,1.06,0,0,0,0-2.12H19.46V7.19H61.17V22.81a1.06,1.06,0,0,0,1.06,1.06H77.1V65.09a1.06,1.06,0,0,0,2.11,0V22.81s0,0,0-.07a2.38,2.38,0,0,0,0-.26l0-.1a1.17,1.17,0,0,0-.19-.3L63,5.41a1,1,0,0,0-.79-.32H18.41a1.05,1.05,0,0,0-1.06,1.06V75.6H6.11a1.06,1.06,0,0,0-1.05,1.06c0,7.43,5.29,13.47,11.79,13.47h37.5a1.06,1.06,0,1,0,0-2.12H16.85c-5,0-9.18-4.53-9.64-10.29H53.47ZM63.28,8.83l12.4,12.92H63.28Z"/><path d="M73.84,64V33.17a1.05,1.05,0,0,0-1.06-1.06h-49a1.05,1.05,0,0,0-1.06,1.06V64a1.05,1.05,0,0,0,1.06,1.06h49A1.05,1.05,0,0,0,73.84,64ZM71.73,38.29H39.25V34.22H71.73Zm-39.4,0V34.22h4.81v4.07Zm4.81,2.11V63H32.33V40.4ZM24.83,34.22h5.38v4.07H24.83Zm0,6.18h5.38V63H24.83ZM39.25,63V40.4H71.73V63Z"/><path d="M60.49,69.27a1.05,1.05,0,0,0-1.06-1.06H55.81a1.06,1.06,0,1,0,0,2.11h3.62A1.05,1.05,0,0,0,60.49,69.27Z"/><path d="M51.57,69.27a.95.95,0,1,0,1-1A.95.95,0,0,0,51.57,69.27Z"/><path d="M23,17.73H34.47a1.06,1.06,0,0,0,0-2.11H23a1.06,1.06,0,1,0,0,2.11Z"/><path d="M23,21.52H38.36a1.06,1.06,0,0,0,0-2.12H23a1.06,1.06,0,0,0,0,2.12Z"/><path d="M42.48,20.46a.95.95,0,1,0-.94.95A.95.95,0,0,0,42.48,20.46Z"/><path d="M71.47,75.84a2,2,0,0,1,2,2,1.06,1.06,0,0,0,1,1.1,1,1,0,0,0,1.09-1,4,4,0,0,0-3-4l0-.75a1.06,1.06,0,0,0-2.11-.08l0,.75a4,4,0,0,0-3.25,3.74,4,4,0,0,0,1.12,2.9,4.21,4.21,0,0,0,2.88,1.27,2.12,2.12,0,0,1,1.44.63,1.82,1.82,0,0,1,.53,1.35,2.05,2.05,0,0,1-4.09-.16,1.07,1.07,0,0,0-1-1.1,1,1,0,0,0-1.1,1,4,4,0,0,0,2.95,4l0,.68a1.05,1.05,0,0,0,1,1.1h0a1.06,1.06,0,0,0,1.05-1l0-.67a4,4,0,0,0,3.25-3.75,4,4,0,0,0-1.12-2.9,4.25,4.25,0,0,0-2.88-1.27A2.12,2.12,0,0,1,69.88,79a1.82,1.82,0,0,1-.53-1.35A2,2,0,0,1,71.47,75.84Z"/><path d="M83.67,92.54a1,1,0,0,0-1-.78,6.53,6.53,0,0,1-3.2-1,13.68,13.68,0,1,0-8.67,3.1A13.48,13.48,0,0,0,74,93.52,8.58,8.58,0,0,0,78.77,95a8.68,8.68,0,0,0,2.31-.31L83,94.15a1,1,0,0,0,.74-1.29Zm-6.67-1a8.39,8.39,0,0,0,1.88,1.32,6.37,6.37,0,0,1-4.07-1.34,1.08,1.08,0,0,0-.64-.22,1.26,1.26,0,0,0-.28,0,11.79,11.79,0,0,1-3.08.43,11.59,11.59,0,1,1,6.32-1.89,1.07,1.07,0,0,0-.47.8A1,1,0,0,0,77,91.56Z"/></g></svg>