<svg xmlns="http://www.w3.org/2000/svg" xmlns:xlink="http://www.w3.org/1999/xlink" version="1.1" x="0px" y="0px" viewBox="0 0 100 125" style="enable-background:new 0 0 100 100;" xml:space="preserve"><path d="M90.8,99H9.2C4.7,99,1,95.3,1,90.8V9.2c0-4.5,3.7-8.2,8.2-8.2h52.3l-8.2,8.2H9.2v81.6h81.6V46.7l8.2-8.2v52.3  C99,95.3,95.3,99,90.8,99z M41.8,78.6l-20.4,0.1l0-20.5L76.7,3.3c3.1-3.1,8.2-3.1,11.3,0c0,0,0,0,0,0l8.5,8.5  c3.1,3.1,3.1,8.2,0,11.4c0,0,0,0,0,0L41.8,78.6z M29.6,70.4h12.2L29.6,58.2V70.4z M82.4,9L37.8,54.1l8.2,8.2l45-44.7L82.4,9z"/></svg>